<?xml version="1.0" encoding="UTF-8"?> <svg xmlns="http://www.w3.org/2000/svg" width="20" height="20" viewBox="0 0 20 20" fill="none"><path d="M6.99999 14.1665L9.99999 11.1665L13 14.1665L14.1667 12.9998L11.1667 9.99984L14.1667 6.99984L13 5.83317L9.99999 8.83317L6.99999 5.83317L5.83332 6.99984L8.83332 9.99984L5.83332 12.9998L6.99999 14.1665ZM9.99999 18.3332C8.84721 18.3332 7.76388 18.1144 6.74999 17.6769C5.7361 17.2394 4.85416 16.6457 4.10416 15.8957C3.35416 15.1457 2.76041 14.2637 2.32291 13.2498C1.88541 12.2359 1.66666 11.1526 1.66666 9.99984C1.66666 8.84706 1.88541 7.76373 2.32291 6.74984C2.76041 5.73595 3.35416 4.854 4.10416 4.104C4.85416 3.354 5.7361 2.76025 6.74999 2.32275C7.76388 1.88525 8.84721 1.6665 9.99999 1.6665C11.1528 1.6665 12.2361 1.88525 13.25 2.32275C14.2639 2.76025 15.1458 3.354 15.8958 4.104C16.6458 4.854 17.2396 5.73595 17.6771 6.74984C18.1146 7.76373 18.3333 8.84706 18.3333 9.99984C18.3333 11.1526 18.1146 12.2359 17.6771 13.2498C17.2396 14.2637 16.6458 15.1457 15.8958 15.8957C15.1458 16.6457 14.2639 17.2394 13.25 17.6769C12.2361 18.1144 11.1528 18.3332 9.99999 18.3332Z" fill="#E8EAED"></path></svg> 